<svg xmlns="http://www.w3.org/2000/svg" viewBox="0 0 96 96"><title>icon-depecher</title><g id="Github"><path d="M48,.59A47.5,47.5,0,0,0,33,93.15c2.38.45,3.25-1,3.25-2.28s0-4.12-.06-8.08c-13.21,2.87-16-6.37-16-6.37-2.16-5.48-5.28-6.95-5.28-6.95-4.3-2.94.33-2.89.33-2.89,4.77.33,7.28,4.89,7.28,4.89,4.24,7.26,11.12,5.17,13.83,4a10.13,10.13,0,0,1,3-6.35C28.78,67.89,17.7,63.81,17.7,45.61a18.33,18.33,0,0,1,4.89-12.75c-.53-1.2-2.14-6,.42-12.57,0,0,4-1.27,13.06,4.87a44.78,44.78,0,0,1,23.75,0c9-6.14,13-4.87,13-4.87,2.55,6.54.95,11.37.48,12.57a18.4,18.4,0,0,1,4.87,12.75c0,18.25-11.1,22.27-21.67,23.43,1.66,1.43,3.21,4.34,3.21,8.79,0,6.36-.06,11.46-.06,13,0,1.25.83,2.73,3.27,2.26A47.44,47.44,0,0,0,48,.59Z" fill="#fff" opacity="0.5"/><path d="M73.29,32.86A18.38,18.38,0,0,1,78.16,45.6c0,18.25-11.1,22.27-21.67,23.44,1.66,1.42,3.2,4.34,3.2,8.79,0,6.35-.06,11.46-.06,13a2.29,2.29,0,0,0,2.86,2.32,47.65,47.65,0,0,1-28.75.08,2.26,2.26,0,0,0,2.48-2.36c0-1.13,0-4.12-.06-8.08-13.21,2.87-16-6.37-16-6.37-2.16-5.48-5.28-7-5.28-7-4.3-2.94.33-2.88.33-2.88,4.77.33,7.28,4.89,7.28,4.89,4.23,7.26,11.12,5.17,13.83,4a10.1,10.1,0,0,1,3-6.35C28.78,67.89,17.7,63.8,17.7,45.6a18.34,18.34,0,0,1,4.88-12.74c-.53-1.2-2.13-6,.42-12.57,0,0,4-1.28,13.06,4.87a44.6,44.6,0,0,1,23.75,0c9-6.15,13-4.87,13-4.87C75.37,26.83,73.76,31.66,73.29,32.86Z" fill="#fff"/></g></svg>