<svg id="github" xmlns="http://www.w3.org/2000/svg" viewBox="0 0 96 96"><title>Artboard 1</title><path id="path4" d="M48,.6A47.46,47.46,0,0,0,33,93.1c2.4.4,3.3-1,3.3-2.3s0-4.1-.1-8.1c-13.2,2.9-16-6.4-16-6.4-2.2-5.5-5.3-6.9-5.3-6.9-4.3-2.9.3-2.9.3-2.9,4.8.3,7.3,4.9,7.3,4.9,4.2,7.3,11.1,5.2,13.8,4a9.87,9.87,0,0,1,3-6.3c-10.6-1.2-21.6-5.3-21.6-23.5a18.49,18.49,0,0,1,4.9-12.8c-.5-1.2-2.1-6,.4-12.6,0,0,4-1.3,13.1,4.9a45.74,45.74,0,0,1,23.8,0c9-6.1,13-4.9,13-4.9a17.68,17.68,0,0,1,.5,12.6,18.78,18.78,0,0,1,4.9,12.8c0,18.3-11.1,22.3-21.7,23.4,1.7,1.4,3.2,4.3,3.2,8.8,0,6.4-.1,11.5-.1,13,0,1.3.8,2.7,3.3,2.3A47.44,47.44,0,0,0,48,.6Z" fill="#fff" opacity="0.5" style="isolation:isolate"/><path id="path6" d="M73.3,32.9a18.71,18.71,0,0,1,4.9,12.7c0,18.3-11.1,22.3-21.7,23.4,1.7,1.4,3.2,4.3,3.2,8.8,0,6.3-.1,11.5-.1,13a2.26,2.26,0,0,0,2.2,2.4,1.7,1.7,0,0,0,.7-.1,48,48,0,0,1-28.8.1,2.39,2.39,0,0,0,2.5-2v-.3c0-1.1,0-4.1-.1-8.1-13.2,2.9-16-6.4-16-6.4-2.2-5.5-5.3-7-5.3-7-4.3-2.9.3-2.9.3-2.9,4.8.3,7.3,4.9,7.3,4.9,4.2,7.3,11.1,5.2,13.8,4a9.87,9.87,0,0,1,3-6.3c-10.5-1.2-21.6-5.3-21.6-23.5a18.08,18.08,0,0,1,4.9-12.7c-.5-1.2-2.1-6,.4-12.6,0,0,4-1.3,13.1,4.9a45.74,45.74,0,0,1,23.8,0c9-6.1,13-4.9,13-4.9C75.4,26.8,73.8,31.7,73.3,32.9Z" fill="#fff"/></svg>