<?xml version="1.0" encoding="UTF-8" standalone="no"?>
<!-- Created with Inkscape (http://www.inkscape.org/) -->

<svg
   xmlns:dc="http://purl.org/dc/elements/1.1/"
   xmlns:cc="http://creativecommons.org/ns#"
   xmlns:rdf="http://www.w3.org/1999/02/22-rdf-syntax-ns#"
   xmlns:svg="http://www.w3.org/2000/svg"
   xmlns="http://www.w3.org/2000/svg"
   xmlns:sodipodi="http://sodipodi.sourceforge.net/DTD/sodipodi-0.dtd"
   xmlns:inkscape="http://www.inkscape.org/namespaces/inkscape"
   width="7.6242466mm"
   height="11.358939mm"
   viewBox="0 0 7.6242466 11.358939"
   version="1.1"
   id="svg8"
   inkscape:export-filename="C:\Users\cheiv\Растровый.png"
   inkscape:export-xdpi="96"
   inkscape:export-ydpi="96"
   inkscape:version="0.92.1 r15371"
   sodipodi:docname="lock_slide.svg">
  <defs
     id="defs2" />
  <sodipodi:namedview
     id="base"
     pagecolor="#ffffff"
     bordercolor="#666666"
     borderopacity="1.0"
     inkscape:pageopacity="0.0"
     inkscape:pageshadow="2"
     inkscape:zoom="7.9195959"
     inkscape:cx="37.512574"
     inkscape:cy="24.948439"
     inkscape:document-units="mm"
     inkscape:current-layer="layer1"
     showgrid="false"
     showguides="true"
     inkscape:guide-bbox="true"
     inkscape:pagecheckerboard="true"
     inkscape:window-width="2560"
     inkscape:window-height="1017"
     inkscape:window-x="-8"
     inkscape:window-y="-8"
     inkscape:window-maximized="1">
    <sodipodi:guide
       position="0.099914265,23.562019"
       orientation="1,0"
       id="guide3696"
       inkscape:locked="false" />
    <sodipodi:guide
       position="7.5176943,17.325409"
       orientation="1,0"
       id="guide3698"
       inkscape:locked="false" />
    <sodipodi:guide
       position="9.0296043,15.671759"
       orientation="0,1"
       id="guide3702"
       inkscape:locked="false" />
  </sodipodi:namedview>
  <metadata
     id="metadata5">
    <rdf:RDF>
      <cc:Work
         rdf:about="">
        <dc:format>image/svg+xml</dc:format>
        <dc:type
           rdf:resource="http://purl.org/dc/dcmitype/StillImage" />
        <dc:title></dc:title>
      </cc:Work>
    </rdf:RDF>
  </metadata>
  <g
     inkscape:label="Layer 1"
     inkscape:groupmode="layer"
     id="layer1"
     transform="translate(-118.58461,-157.63462)">
    <path
       style="fill:#000000;fill-opacity:1;stroke:#000000;stroke-width:0.26458332;stroke-opacity:1"
       d="m 125.73813,168.55082 c 0.22253,-0.22007 0.28247,-0.69402 0.28247,-2.23371 0,-1.98077 -0.15904,-2.64203 -0.63545,-2.64203 -0.16645,0 -0.26475,-0.17982 -0.26725,-0.48884 -0.006,-0.72084 -0.61728,-1.92827 -1.15195,-2.27473 -0.25687,-0.16644 -0.81841,-0.34179 -1.24786,-0.38966 -1.50121,-0.16734 -2.6513,0.7823 -2.91384,2.40595 -0.0664,0.41101 -0.1856,0.74728 -0.26476,0.74728 -0.0792,0 -0.27105,0.1257 -0.42641,0.27934 -0.41113,0.40659 -0.41113,4.18981 0,4.5964 0.41857,0.41393 6.20649,0.41393 6.62505,0 z m -6.46856,-0.30559 c -0.0508,-0.13082 -0.0692,-1.11263 -0.0409,-2.18179 l 0.0514,-1.94396 h 3.14561 3.14561 v 2.13314 2.13313 l -3.10467,0.0486 c -2.46154,0.0385 -3.12381,-6.1e-4 -3.19698,-0.18918 z m 3.33579,-1.28398 c 0,-0.24575 0.0936,-0.59512 0.20812,-0.77638 0.2759,-0.4369 0.0743,-0.90993 -0.38787,-0.90993 -0.46214,0 -0.66378,0.47303 -0.38787,0.90993 0.11447,0.18126 0.20812,0.53063 0.20812,0.77638 0,0.24575 0.0809,0.44682 0.17975,0.44682 0.0989,0 0.17975,-0.20107 0.17975,-0.44682 z m -2.47054,-4.09961 c 0.11164,-0.97946 0.78999,-1.76684 1.77317,-2.05815 1.35176,-0.40051 2.85436,0.81982 2.85436,2.32073 v 0.55086 h -2.36012 -2.36012 z"
       id="path3691"
       inkscape:connector-curvature="0"
       sodipodi:nodetypes="cssccccsscccccccccsccscscsssccscccc"
       inkscape:export-xdpi="96"
       inkscape:export-ydpi="96" />
    <path
       style="fill:#000000;fill-opacity:0;stroke:#000000;stroke-width:0.47400001;stroke-linecap:butt;stroke-linejoin:miter;stroke-miterlimit:4;stroke-dasharray:none;stroke-opacity:1"
       d="m 118.68639,159.14225 c 0,0 2.67185,-1.27063 3.91944,-1.27063 1.02897,0 3.49445,1.27063 3.49445,1.27063"
       id="path3706"
       inkscape:connector-curvature="0"
       sodipodi:nodetypes="csc" />
    <path
       style="fill:#000000;fill-opacity:0;stroke-width:0.12626907"
       d="m 430.72761,615.73096 v -31.88294 h 8.91249 c 7.07401,0 8.90158,-0.0326 8.85962,-0.15784 -0.12458,-0.37192 6.94147,-3.00768 10.58,-3.94653 3.86061,-0.99615 5.5751,-0.89794 9.80878,0.5619 3.30178,1.1385 7.80105,3.08073 7.80105,3.36753 0,0.14743 1.40982,0.17494 8.9651,0.17494 h 8.96511 v 31.88294 31.88293 h -31.94608 -31.94607 z m 39.71162,22.41247 c 2.21102,-0.1852 3.94851,-0.46898 4.4744,-0.73078 0.56769,-0.28261 0.86194,-0.70331 1.0822,-1.54725 0.40115,-1.53706 0.56108,-7.26703 0.31551,-11.30411 -0.2438,-4.00791 -0.7947,-5.59985 -2.01145,-5.81248 -0.96784,-0.16912 -1.19041,-0.5306 -1.32331,-2.14922 -0.20154,-2.45442 -1.80693,-5.91499 -3.56103,-7.67611 -1.62137,-1.62786 -5.87004,-2.62497 -8.72233,-2.04703 -4.24984,0.86113 -6.91976,3.91479 -7.8878,9.0215 -0.13782,0.72706 -0.36403,1.62514 -0.50269,1.99572 -0.21651,0.57868 -0.32778,0.70727 -0.7882,0.91094 -0.85565,0.3785 -1.53468,1.11176 -1.7724,1.91397 -0.47401,1.59956 -0.63461,3.5648 -0.63461,7.76555 0,5.12762 0.34511,7.92902 1.06552,8.64943 0.51983,0.51983 2.86325,0.90894 6.82162,1.13269 2.46881,0.13956 11.27242,0.0591 13.44457,-0.12282 z m 4.5361,-54.41864 c -0.22692,-0.22692 -4.38722,-1.9085 -6.43014,-2.59904 -2.31589,-0.78281 -4.08034,-1.18725 -5.19206,-1.1901 -1.97821,-0.005 -5.60882,0.93669 -10.17399,2.63907 -2.0356,0.75908 -2.87983,1.11253 -2.87983,1.20567 0,0.0372 5.57983,0.0676 12.39963,0.0676 8.06207,0 12.35651,-0.0431 12.27639,-0.12323 z"
       id="path3708"
       inkscape:connector-curvature="0"
       transform="scale(0.26458333)" />
    <path
       style="fill:#000000;fill-opacity:0;stroke-width:0.12626907"
       d="m 430.72761,615.73096 v -31.88294 h 8.91249 c 7.07401,0 8.90158,-0.0326 8.85962,-0.15784 -0.12458,-0.37192 6.94147,-3.00768 10.58,-3.94653 3.86061,-0.99615 5.5751,-0.89794 9.80878,0.5619 3.30178,1.1385 7.80105,3.08073 7.80105,3.36753 0,0.14743 1.40982,0.17494 8.9651,0.17494 h 8.96511 v 31.88294 31.88293 h -31.94608 -31.94607 z m 39.71162,22.41247 c 2.21102,-0.1852 3.94851,-0.46898 4.4744,-0.73078 0.56769,-0.28261 0.86194,-0.70331 1.0822,-1.54725 0.40115,-1.53706 0.56108,-7.26703 0.31551,-11.30411 -0.2438,-4.00791 -0.7947,-5.59985 -2.01145,-5.81248 -0.96784,-0.16912 -1.19041,-0.5306 -1.32331,-2.14922 -0.20154,-2.45442 -1.80693,-5.91499 -3.56103,-7.67611 -1.62137,-1.62786 -5.87004,-2.62497 -8.72233,-2.04703 -4.24984,0.86113 -6.91976,3.91479 -7.8878,9.0215 -0.13782,0.72706 -0.36403,1.62514 -0.50269,1.99572 -0.21651,0.57868 -0.32778,0.70727 -0.7882,0.91094 -0.85565,0.3785 -1.53468,1.11176 -1.7724,1.91397 -0.47401,1.59956 -0.63461,3.5648 -0.63461,7.76555 0,5.12762 0.34511,7.92902 1.06552,8.64943 0.51983,0.51983 2.86325,0.90894 6.82162,1.13269 2.46881,0.13956 11.27242,0.0591 13.44457,-0.12282 z m 4.5361,-54.41864 c -0.22692,-0.22692 -4.38722,-1.9085 -6.43014,-2.59904 -2.31589,-0.78281 -4.08034,-1.18725 -5.19206,-1.1901 -1.97821,-0.005 -5.60882,0.93669 -10.17399,2.63907 -2.0356,0.75908 -2.87983,1.11253 -2.87983,1.20567 0,0.0372 5.57983,0.0676 12.39963,0.0676 8.06207,0 12.35651,-0.0431 12.27639,-0.12323 z"
       id="path3710"
       inkscape:connector-curvature="0"
       transform="scale(0.26458333)" />
  </g>
  <g
     inkscape:groupmode="layer"
     id="layer2"
     inkscape:label="Layer 2"
     transform="translate(-118.58461,-157.63462)" />
</svg>
