<?xml version="1.0" encoding="UTF-8" standalone="no"?>
<svg
   xmlns:dc="http://purl.org/dc/elements/1.1/"
   xmlns:cc="http://creativecommons.org/ns#"
   xmlns:rdf="http://www.w3.org/1999/02/22-rdf-syntax-ns#"
   xmlns:svg="http://www.w3.org/2000/svg"
   xmlns="http://www.w3.org/2000/svg"
   xmlns:sodipodi="http://sodipodi.sourceforge.net/DTD/sodipodi-0.dtd"
   xmlns:inkscape="http://www.inkscape.org/namespaces/inkscape"
   height="31.153847"
   version="1.1"
   viewBox="0 0 30 31.153847"
   width="30"
   id="svg6385"
   sodipodi:docname="paypal.svg"
   inkscape:version="0.92.1 r">
  <metadata
     id="metadata6389">
    <rdf:RDF>
      <cc:Work
         rdf:about="">
        <dc:format>image/svg+xml</dc:format>
        <dc:type
           rdf:resource="http://purl.org/dc/dcmitype/StillImage" />
      </cc:Work>
    </rdf:RDF>
  </metadata>
  <sodipodi:namedview
     pagecolor="#ffffff"
     bordercolor="#666666"
     borderopacity="1"
     objecttolerance="10"
     gridtolerance="10"
     guidetolerance="10"
     inkscape:pageopacity="0"
     inkscape:pageshadow="2"
     inkscape:window-width="1366"
     inkscape:window-height="742"
     id="namedview6387"
     showgrid="false"
     inkscape:zoom="11.125147"
     inkscape:cx="5.4062933"
     inkscape:cy="18.933476"
     inkscape:window-x="0"
     inkscape:window-y="26"
     inkscape:window-maximized="1"
     inkscape:current-layer="paypal" />
  <title
     id="title6374" />
  <desc
     id="desc6376" />
  <defs
     id="defs6378" />
  <g
     id="black"
     style="fill:none;fill-rule:evenodd;stroke:none;stroke-width:1"
     transform="translate(-15,-13.846154)">
    <g
       id="slice"
       transform="translate(-801)" />
    <g
       id="paypal"
       transform="translate(15,13)"
       style="fill:#000000">
      <path
         d="m 29.634589,8.9230769 c -0.03295,3.6333291 -1.634566,6.6085011 -4.77405,8.8315931 -3.075735,2.178202 -7.378468,3.285259 -12.789297,3.290093 h -1.218404 c -0.416162,0 -0.8924929,0.362574 -0.9805961,0.746556 L 8.4017055,27.900505 C 8.0894045,29.22925 6.7327577,30.273461 5.3145102,30.273461 H 1.2331092 L 1.1958623,30.42954 C 0.98885546,31.289356 1.5668987,32 2.4866107,32 h 4.2597565 c 0.9211445,0 1.8336937,-0.692688 2.0407005,-1.57046 l 1.4683873,-6.098827 c 0.195547,-0.852911 1.105947,-1.55872 2.02924,-1.55872 h 1.217687 c 5.209553,-0.0048 9.250842,-1.03247 12.154668,-3.089124 2.899528,-2.0532 4.349292,-4.773535 4.342845,-8.138215 0.0043,-0.986199 -0.123917,-1.8529218 -0.365306,-2.6215771 z M 17.782623,13.395019 c -1.224158,0.863761 -2.921719,1.297289 -5.125475,1.297289 h -0.995994 c -0.877814,0 -1.431827,-0.672034 -1.23782,-1.496264 l 1.222791,-5.0824195 c 0.185809,-0.8182999 1.062257,-1.4982399 1.940071,-1.4903336 l 1.328674,-0.00791 c 1.553423,0 2.73386,0.2569541 3.530382,0.7662502 0.784909,0.4961191 1.183853,1.2794996 1.169508,2.3336701 0.02323,1.5858678 -0.601149,2.8139768 -1.832137,3.6797138 z M 28.03377,5.0467491 C 27.504435,4.0307715 26.710789,3.2057301 25.697961,2.5828978 24.647168,1.9445651 23.425184,1.5056233 22.00049,1.2400037 20.567201,0.98777069 18.89324,0.86376788 16.97216,0.84615385 L 8.0801815,0.8524949 C 7.1561721,0.86376788 6.2507862,1.5760795 6.0373329,2.4504402 L 0.04201612,28.090135 c -0.20700676,0.877179 0.37103633,1.602173 1.29074798,1.602173 H 5.592519 c 0.9211443,0 1.8336931,-0.706675 2.0406998,-1.602173 L 9.1016059,21.868153 C 9.297152,20.99802 10.207552,20.277958 11.130845,20.277958 h 1.217687 c 5.20955,-0.0049 9.250838,-1.053319 12.154663,-3.151503 2.899527,-2.094661 4.349291,-4.869929 4.342844,-8.3025521 0.0064,-1.5084661 -0.258579,-2.769631 -0.812269,-3.7771538"
         id="path6381"
         style="fill:#ffffff;fill-opacity:1"
         inkscape:connector-curvature="0" />
    </g>
  </g>
</svg>
