<svg id="PayPal" xmlns="http://www.w3.org/2000/svg" viewBox="0 0 96 96"><title>icon-depecher</title><path d="M80.33,24.64h0q-.13.85-.3,1.73c-3.88,20-17.14,26.9-34.08,26.9H37.33a4.19,4.19,0,0,0-4.14,3.56h0L28.78,85l-1.25,8a2.21,2.21,0,0,0,2.18,2.56H45a3.69,3.69,0,0,0,3.64-3.12l.15-.78,2.88-18.36.18-1a3.68,3.68,0,0,1,3.64-3.12h2.29c14.82,0,26.42-6,29.81-23.54,1.42-7.31.68-13.41-3.06-17.7A14.63,14.63,0,0,0,80.33,24.64Z" fill="#fff" opacity="0.5"/><path d="M76.58,23.1q-.89-.26-1.84-.47t-2-.37a48.44,48.44,0,0,0-7.66-.56H41.92a3.7,3.7,0,0,0-3.66,3.12L33.33,56l-.14.91a4.21,4.21,0,0,1,4.17-3.56H46c17.06,0,30.42-6.9,34.32-26.85.12-.59.2-1.08.29-1.64a25.22,25.22,0,0,0-3.2-1.44Z" fill="#fff"/><path d="M80.65,24.81a21.7,21.7,0,0,0-3.29-1.36l-.88-.27c-.59-.18-1.21-.33-1.83-.48s-1.28-.26-1.95-.36-1.19-.18-1.79-.24c-1.23-.14-2.49-.23-3.82-.27q-1,0-2,0H42a3.69,3.69,0,0,0-1.59.36,3.63,3.63,0,0,0-2.05,2.74l-4.92,31-.14.9-4.43,28H10.64a2.52,2.52,0,0,1-2.5-2.92L20.42,4.35A4.2,4.2,0,0,1,24.58.8H54.07C64.22.8,72.16,2.94,76.56,7.92,80.55,12.45,81.81,17.47,80.65,24.81Z" fill="#fff" opacity="0.5"/><path d="M80.65,24.81a21.7,21.7,0,0,0-3.29-1.36l-.88-.27c-.59-.18-1.21-.33-1.83-.48s-1.28-.26-1.95-.36-1.19-.18-1.79-.24c-1.23-.14-2.49-.23-3.82-.27q-1,0-2,0H42a3.69,3.69,0,0,0-1.59.36,3.63,3.63,0,0,0-2.05,2.74l-4.92,31-.14.9-4.43,28H10.64a2.52,2.52,0,0,1-2.5-2.92L20.42,4.35A4.2,4.2,0,0,1,24.58.8H54.07C64.22.8,72.16,2.94,76.56,7.92,80.55,12.45,81.81,17.47,80.65,24.81Z" fill="#fff" opacity="0.6"/></svg>