<?xml version="1.0" encoding="UTF-8" standalone="no"?>
<!-- Generator: Adobe Illustrator 17.0.1, SVG Export Plug-In . SVG Version: 6.00 Build 0)  -->

<svg
   xmlns:dc="http://purl.org/dc/elements/1.1/"
   xmlns:cc="http://creativecommons.org/ns#"
   xmlns:rdf="http://www.w3.org/1999/02/22-rdf-syntax-ns#"
   xmlns:svg="http://www.w3.org/2000/svg"
   xmlns="http://www.w3.org/2000/svg"
   xmlns:xlink="http://www.w3.org/1999/xlink"
   xmlns:sodipodi="http://sodipodi.sourceforge.net/DTD/sodipodi-0.dtd"
   xmlns:inkscape="http://www.inkscape.org/namespaces/inkscape"
   version="1.1"
   x="0px"
   y="0px"
   width="85.400002"
   height="85.400002"
   viewBox="0 0 85.400002 85.400002"
   enable-background="new 0 0 86 86"
   xml:space="preserve"
   id="svg2685"
   sodipodi:docname="depecher_icon.svg"
   inkscape:version="0.92.2 2405546, 2018-03-11"
   inkscape:export-filename="/home/aa13q/bitmap.png"
   inkscape:export-xdpi="287.77518"
   inkscape:export-ydpi="287.77518"><metadata
   id="metadata2691"><rdf:RDF><cc:Work
       rdf:about=""><dc:format>image/svg+xml</dc:format><dc:type
         rdf:resource="http://purl.org/dc/dcmitype/StillImage" /><dc:title></dc:title></cc:Work></rdf:RDF></metadata><defs
   id="defs2689"><linearGradient
     inkscape:collect="always"
     id="linearGradient9406"><stop
       style="stop-color:#edefd2;stop-opacity:1"
       offset="0"
       id="stop9402" /><stop
       style="stop-color:#e3da9c;stop-opacity:1"
       offset="1"
       id="stop9404" /></linearGradient><linearGradient
     gradientUnits="userSpaceOnUse"
     id="b"
     x1="160.008"
     y1="40.007999"
     x2="100.008"
     y2="180"
     gradientTransform="translate(-283.86876,-85.297589)"><stop
       stop-color="#37aee2"
       offset="0"
       id="stop3926" /><stop
       stop-color="#1e96c8"
       offset="1"
       id="stop3928" /></linearGradient><linearGradient
     inkscape:collect="always"
     xlink:href="#b"
     id="linearGradient4525"
     x1="0.31648636"
     y1="85.709549"
     x2="85.707977"
     y2="0.35558069"
     gradientUnits="userSpaceOnUse" /><linearGradient
     gradientUnits="userSpaceOnUse"
     gradientTransform="matrix(0.37610057,0,0,0.31545093,125.4793,-51.476341)"
     id="w"
     x1="123.64119"
     y1="131.02763"
     x2="146.52715"
     y2="174.70815"><stop
       stop-color="#eff7fc"
       offset="0"
       id="stop3931" /><stop
       stop-color="#fff"
       offset="1"
       id="stop3933" /></linearGradient><linearGradient
     gradientUnits="userSpaceOnUse"
     gradientTransform="matrix(1.0919081,0,0,0.91582798,-14.421203,-70.52927)"
     id="w-3"
     x1="123.64119"
     y1="131.02763"
     x2="146.52715"
     y2="174.70815"
     xlink:href="#b"><stop
       stop-color="#eff7fc"
       offset="0"
       id="stop3931-6" /><stop
       stop-color="#fff"
       offset="1"
       id="stop3933-7" /></linearGradient><linearGradient
     id="SVGID_1_-5"
     gradientUnits="userSpaceOnUse"
     x1="79.238297"
     y1="91.327904"
     x2="6.7618999"
     y2="18.8514"
     gradientTransform="translate(-49.600183,1.7665819)"><stop
       offset="0"
       style="stop-color:#2BBD99"
       id="stop3330" /><stop
       offset="0.9951"
       style="stop-color:#008344"
       id="stop3332" /></linearGradient><linearGradient
     inkscape:collect="always"
     xlink:href="#b"
     id="linearGradient5526"
     x1="960"
     y1="867.53156"
     x2="1830"
     y2="867.53156"
     gradientUnits="userSpaceOnUse" /><linearGradient
     inkscape:collect="always"
     xlink:href="#b"
     id="linearGradient5535"
     gradientUnits="userSpaceOnUse"
     x1="845.38477"
     y1="674.14642"
     x2="1924.3751"
     y2="1119.4532" /><linearGradient
     inkscape:collect="always"
     xlink:href="#b"
     id="linearGradient5537"
     gradientUnits="userSpaceOnUse"
     x1="960"
     y1="867.53156"
     x2="1830"
     y2="867.53156" /><linearGradient
     inkscape:collect="always"
     xlink:href="#b"
     id="linearGradient5539"
     gradientUnits="userSpaceOnUse"
     x1="960"
     y1="867.53156"
     x2="1830"
     y2="867.53156" /><linearGradient
     inkscape:collect="always"
     xlink:href="#b"
     id="linearGradient5541"
     gradientUnits="userSpaceOnUse"
     x1="960"
     y1="867.53156"
     x2="1830"
     y2="867.53156" /><linearGradient
     inkscape:collect="always"
     xlink:href="#b"
     id="linearGradient5543"
     gradientUnits="userSpaceOnUse"
     x1="960"
     y1="867.53156"
     x2="1830"
     y2="867.53156" /><linearGradient
     inkscape:collect="always"
     xlink:href="#b"
     id="linearGradient9392"
     x1="35.986565"
     y1="109.9798"
     x2="163.5013"
     y2="2.0272603"
     gradientUnits="userSpaceOnUse" /><linearGradient
     inkscape:collect="always"
     xlink:href="#linearGradient9406"
     id="linearGradient9408"
     x1="0.19915017"
     y1="0.13276631"
     x2="85.892174"
     y2="85.652321"
     gradientUnits="userSpaceOnUse"
     gradientTransform="translate(0.515625,0.5)" /><linearGradient
     inkscape:collect="always"
     xlink:href="#linearGradient9406"
     id="linearGradient9416"
     x1="15.159669"
     y1="15.775714"
     x2="-3.1165462"
     y2="86.562302"
     gradientUnits="userSpaceOnUse"
     gradientTransform="translate(0.52953037,0.50902327)" /><linearGradient
     inkscape:collect="always"
     xlink:href="#linearGradient9406"
     id="linearGradient9487"
     x1="21.174751"
     y1="22.887676"
     x2="44.429169"
     y2="15.198261"
     gradientUnits="userSpaceOnUse"
     gradientTransform="rotate(-8,14.828987,-46.461533)" /><linearGradient
     inkscape:collect="always"
     xlink:href="#linearGradient9406"
     id="linearGradient9498"
     x1="51.847778"
     y1="12.927837"
     x2="13.536599"
     y2="24.024717"
     gradientUnits="userSpaceOnUse"
     gradientTransform="rotate(-8,14.371119,-46.513632)" /><linearGradient
     inkscape:collect="always"
     xlink:href="#linearGradient9406"
     id="linearGradient9524"
     x1="20.600924"
     y1="19.058729"
     x2="44.974083"
     y2="19.058729"
     gradientUnits="userSpaceOnUse"
     gradientTransform="rotate(-8,14.371119,-46.513632)" /><linearGradient
     inkscape:collect="always"
     xlink:href="#linearGradient9406"
     id="linearGradient9540"
     x1="45.242004"
     y1="19.345116"
     x2="28.168669"
     y2="23.074209"
     gradientUnits="userSpaceOnUse"
     gradientTransform="rotate(-8,14.371119,-46.513632)" /><linearGradient
     inkscape:collect="always"
     xlink:href="#linearGradient9406"
     id="linearGradient9548"
     x1="51.868309"
     y1="23.309481"
     x2="20.279358"
     y2="18.53651"
     gradientUnits="userSpaceOnUse"
     gradientTransform="rotate(-8,14.371119,-46.513632)" /><linearGradient
     inkscape:collect="always"
     xlink:href="#linearGradient9406"
     id="linearGradient9566"
     gradientUnits="userSpaceOnUse"
     x1="26.748758"
     y1="24.963327"
     x2="44.604355"
     y2="18.719797"
     gradientTransform="translate(-32.875,9.1875)" /><linearGradient
     inkscape:collect="always"
     xlink:href="#linearGradient9406"
     id="linearGradient9568"
     gradientUnits="userSpaceOnUse"
     x1="40.339573"
     y1="26.734554"
     x2="21.090897"
     y2="21.303476"
     gradientTransform="translate(-32.875,9.1875)" /><linearGradient
     inkscape:collect="always"
     xlink:href="#linearGradient9406"
     id="linearGradient9570"
     gradientUnits="userSpaceOnUse"
     gradientTransform="translate(-32.886707,9.2507159)"
     x1="44.849186"
     y1="13.65066"
     x2="21.197472"
     y2="23.031069" /><linearGradient
     inkscape:collect="always"
     xlink:href="#linearGradient9406"
     id="linearGradient9572"
     gradientUnits="userSpaceOnUse"
     x1="20.600924"
     y1="19.058729"
     x2="44.974083"
     y2="19.058729"
     gradientTransform="translate(-32.875,9.1875)" /><linearGradient
     inkscape:collect="always"
     xlink:href="#linearGradient9406"
     id="linearGradient9574"
     gradientUnits="userSpaceOnUse"
     x1="51.847778"
     y1="12.927837"
     x2="13.536599"
     y2="24.024717"
     gradientTransform="translate(-32.875,9.1875)" /><linearGradient
     inkscape:collect="always"
     xlink:href="#linearGradient9406"
     id="linearGradient9668"
     gradientUnits="userSpaceOnUse"
     gradientTransform="rotate(-8,14.371119,-46.513632)"
     x1="51.868309"
     y1="23.309481"
     x2="20.279358"
     y2="18.53651" /><linearGradient
     inkscape:collect="always"
     xlink:href="#linearGradient9406"
     id="linearGradient9670"
     gradientUnits="userSpaceOnUse"
     gradientTransform="rotate(-8,14.828987,-46.461533)"
     x1="21.174751"
     y1="22.887676"
     x2="44.429169"
     y2="15.198261" /><linearGradient
     inkscape:collect="always"
     xlink:href="#linearGradient9406"
     id="linearGradient9672"
     gradientUnits="userSpaceOnUse"
     gradientTransform="rotate(-8,14.371119,-46.513632)"
     x1="20.600924"
     y1="19.058729"
     x2="44.974083"
     y2="19.058729" /><linearGradient
     inkscape:collect="always"
     xlink:href="#linearGradient9406"
     id="linearGradient9674"
     gradientUnits="userSpaceOnUse"
     gradientTransform="rotate(-8,14.371119,-46.513632)"
     x1="51.847778"
     y1="12.927837"
     x2="13.536599"
     y2="24.024717" /></defs><sodipodi:namedview
   pagecolor="#ffffff"
   bordercolor="#666666"
   borderopacity="1"
   objecttolerance="10"
   gridtolerance="10"
   guidetolerance="10"
   inkscape:pageopacity="0"
   inkscape:pageshadow="2"
   inkscape:window-width="1920"
   inkscape:window-height="1080"
   id="namedview2687"
   showgrid="false"
   inkscape:zoom="8"
   inkscape:cx="66.364501"
   inkscape:cy="29.851863"
   inkscape:window-x="0"
   inkscape:window-y="0"
   inkscape:window-maximized="1"
   inkscape:current-layer="layer1"
   inkscape:object-paths="true" />
<g
   id="Layer_2"
   display="none"
   style="display:none"
   transform="translate(-0.815625,-0.8)">
</g>
<g
   inkscape:groupmode="layer"
   id="layer1"
   inkscape:label="Layer 1"
   style="display:inline"
   transform="translate(-0.815625,-0.8)"><g
     id="Layer_1"
     transform="translate(0.515625,0.5)">
	<linearGradient
   id="SVGID_1_"
   gradientUnits="userSpaceOnUse"
   x1="85.283096"
   y1="0.71689999"
   x2="0.71689999"
   y2="85.283096"
   xlink:href="#b">
		<stop
   offset="0.0054"
   style="stop-color:#51EAEE"
   id="stop2673" />
		<stop
   offset="1"
   style="stop-color:#00B4E6"
   id="stop2675" />
	</linearGradient>
	<path
   d="M 84.277,0.3 H 43 C 19.417,0.3 0.3,19.418 0.3,43 v 41.277 c 0,0.786 0.637,1.423 1.423,1.423 H 43 C 66.583,85.7 85.7,66.582 85.7,43 V 1.723 C 85.7,0.937 85.063,0.3 84.277,0.3 Z"
   id="path2678"
   style="fill:#d7ca95;fill-opacity:1"
   inkscape:connector-curvature="0" />
	
</g></g><g
   inkscape:groupmode="layer"
   id="layer7"
   inkscape:label="Layer 7"
   style="display:inline"
   transform="translate(-0.815625,-0.8)"><g
     id="g9647"><path
       inkscape:connector-curvature="0"
       id="path9463"
       d="m 42.844957,20.151631 c -0.578467,0.06108 -1.495571,0.137788 -2.038008,0.170459 -0.960109,0.05784 -2.782886,0.100983 -2.965785,0.07015 -0.08361,-0.01408 -0.09517,-0.06083 -0.14171,-0.573748 -0.02789,-0.307127 -0.102627,-1.024035 -0.166175,-1.593118 l -0.115525,-1.034699 0.240374,0.135196 c 1.926989,1.083816 7.585966,0.705834 11.694571,-0.781115 1.880597,-0.680611 3.200669,-1.492793 3.803214,-2.339945 l 0.232944,-0.327509 0.04081,0.293891 c 0.06497,0.46785 0.384865,3.44189 0.372062,3.458884 -0.03533,0.04688 -1.996603,0.699061 -2.833835,0.942327 -1.725496,0.501361 -3.043835,0.801392 -5.06784,1.153352 -1.505994,0.261883 -1.51821,0.263591 -3.05512,0.425834 z"
       style="fill:url(#linearGradient9540);fill-opacity:1;stroke:none;stroke-width:0.00363172;stroke-miterlimit:4;stroke-dasharray:none;stroke-opacity:1" /><path
       inkscape:connector-curvature="0"
       d="m 29.982417,17.540938 2.417122,12.34915 m 20.99948,-16.771927 0.512936,4.512754 M 37.328322,16.973232 c 1.010615,1.190911 5.588467,1.201501 9.54943,0.262211 5.056277,-1.19903 7.591953,-3.387015 6.098116,-4.73779 -1.827103,-1.652127 -8.532861,-1.623304 -14.313259,-0.171617 -6.861005,1.723067 -10.245753,4.725288 -7.982961,6.548878 2.626787,2.116934 11.48114,2.047666 19.07709,0.08102 8.668165,-2.244245 12.90582,-6.065276 9.867803,-8.359967 -3.420035,-2.583238 -14.431116,-2.4731588 -23.84092,0.0096 -3.863969,1.01949 -7.080551,2.325646 -9.354594,3.708083 -2.187433,1.329787 -3.502753,2.730155 -3.68326,4.013858 -0.01974,0.140395 9.64602,11.425251 9.653772,11.562608 l 26.721552,-6.05686 1.54564,-11.62412 m -23.338409,4.764124 0.390827,3.503506"
       style="fill:none;stroke:none;stroke-width:0.07559055;stroke-linecap:butt;stroke-linejoin:miter;stroke-miterlimit:4;stroke-dasharray:none;stroke-opacity:1"
       id="path9470" /><path
       inkscape:connector-curvature="0"
       id="path9473"
       d="m 32.388422,29.512109 c -0.06045,-0.265761 -2.120336,-10.780358 -2.141643,-10.931968 -0.004,-0.02857 0.10537,0.05888 0.243079,0.194328 0.365819,0.359799 0.988767,0.690201 1.816331,0.963352 0.812572,0.268201 1.346716,0.389804 2.302687,0.524232 4.160746,0.585079 10.111582,0.07484 15.414326,-1.32166 4.718049,-1.242519 8.427173,-3.091871 9.896538,-4.934368 0.174357,-0.218632 0.361357,-0.4856 0.415557,-0.593263 0.0542,-0.107661 0.106973,-0.189403 0.11727,-0.181643 0.01915,0.01443 -1.224458,9.431293 -1.249735,9.463257 -0.0075,0.0095 -0.244092,0.02338 -0.525375,0.03043 -1.366633,0.03429 -3.396465,0.272091 -4.675942,0.547828 -2.83768,0.611541 -5.402438,1.64987 -7.896312,3.196782 l -0.656744,0.40737 -6.293493,1.42274 c -3.46142,0.782509 -6.383831,1.446217 -6.494242,1.474907 l -0.200751,0.05217 z"
       style="fill:url(#linearGradient9668);fill-opacity:1;stroke:none;stroke-width:0.37795275;stroke-miterlimit:4;stroke-dasharray:none;stroke-opacity:1" /><path
       inkscape:connector-curvature="0"
       id="path9478"
       d="m 36.941286,20.416643 c -2.452881,-0.111813 -4.606454,-0.567052 -5.73491,-1.212307 -0.651182,-0.372345 -0.983629,-0.752709 -1.095431,-1.253321 -0.110052,-0.492718 -0.02104,-0.850171 0.339211,-1.363517 1.243987,-1.772292 4.814815,-3.423399 9.61022,-4.443643 1.328787,-0.282703 4.814151,-0.716423 6.017407,-0.748799 3.189276,-0.08581 5.466294,0.269555 6.568817,1.025197 0.467452,0.320376 0.596991,0.496044 0.65143,0.8834 0.176829,1.258206 -2.096994,2.736697 -5.811874,3.779008 -1.142816,0.320648 -4.720955,0.823515 -5.848766,0.821976 -2.029446,-0.0028 -3.30398,-0.223665 -3.977245,-0.689316 -0.262604,-0.181623 -0.334418,-0.2065 -0.369843,-0.128117 -0.02419,0.0535 0.0049,0.448029 0.06462,0.876737 0.140893,1.011151 0.275677,2.481697 0.227461,2.480859 -0.0207,-2.78e-4 -0.309197,-0.013 -0.641092,-0.02819 z"
       style="display:inline;opacity:0.98000004;fill:url(#linearGradient9670);fill-opacity:1;stroke:url(#linearGradient9672);stroke-width:0.37795275;stroke-miterlimit:4;stroke-dasharray:none;stroke-opacity:1" /><path
       inkscape:connector-curvature="0"
       id="path9489"
       d="m 29.489597,21.721755 c -1.586499,-0.62762 -3.399118,-1.490089 -4.926153,-2.34393 -1.551705,-0.867636 -1.696823,-0.95934 -1.714238,-1.083257 -0.06565,-0.467096 0.774255,-1.725935 1.664797,-2.495189 2.515274,-2.172699 6.828485,-4.029441 12.744221,-5.486106 2.152731,-0.5300766 8.366679,-1.4047192 10.55948,-1.4862585 4.236147,-0.157585 7.458612,0.1343385 9.751011,0.8833609 1.914794,0.6256426 2.992426,1.5594236 2.94892,2.5552756 -0.05278,1.208139 -1.195626,2.48883 -3.335227,3.737504 -0.862595,0.503412 -2.802591,1.425941 -3.080869,1.465052 -0.1025,0.01439 -0.173213,-0.367167 -0.43223,-2.332395 l -0.309675,-2.349618 -0.29747,-0.295232 c -1.763212,-1.749931 -9.070265,-1.746472 -15.318348,0.0073 -3.607101,1.012449 -6.574288,2.592014 -7.43442,3.957668 -0.441287,0.700645 -0.457723,0.961444 -0.153295,2.432704 0.564248,2.726896 0.663418,3.279802 0.590117,3.290049 -0.04137,0.0057 -0.606848,-0.199799 -1.256616,-0.456847 z"
       style="display:inline;opacity:0.98000004;fill:url(#linearGradient9674);fill-opacity:1;stroke:none;stroke-width:0.00668132;stroke-miterlimit:4;stroke-dasharray:none;stroke-opacity:1" /></g></g><g
   style="display:inline;opacity:1"
   inkscape:label="Копия слоя Layer 7"
   id="g9560"
   inkscape:groupmode="layer"
   transform="translate(-0.815625,-0.8)"><g
     id="g9581"
     transform="matrix(-0.13433959,0,0,-0.16964918,5.1853701,75.130358)"><path
       style="fill:url(#linearGradient9566);fill-opacity:1;stroke:none;stroke-width:0.00363172;stroke-miterlimit:4;stroke-dasharray:none;stroke-opacity:1"
       d="m 0.41484107,32.653141 c -0.58134,-0.02002 -1.50019497,-0.07169 -2.04189897,-0.114829 -0.958813,-0.07636 -2.769851,-0.287349 -2.946684,-0.3433 -0.08085,-0.02558 -0.08578,-0.07348 -0.06048,-0.587886 0.01515,-0.308019 0.04088,-1.028353 0.05716,-1.600741 l 0.02961,-1.040706 0.219219,0.167333 c 1.757398,1.341453 7.413906,1.754728 11.689469,0.854055 1.95702,-0.412258 3.3772789,-1.032816 4.0918609,-1.787867 l 0.276257,-0.291903 -4.95e-4,0.296713 c -7.83e-4,0.472336 -0.0979,3.461954 -0.112942,3.477 -0.04151,0.04151 -2.0744619,0.414386 -2.9374029,0.538765 -1.778479,0.256338 -3.125746,0.369972 -5.179036,0.43682 -1.527786,0.04974 -1.540119,0.04973 -3.08465103,-0.0035 z"
       id="path9550"
       inkscape:connector-curvature="0" /><path
       id="path9552"
       style="fill:none;stroke:none;stroke-width:0.07559055;stroke-linecap:butt;stroke-linejoin:miter;stroke-miterlimit:4;stroke-dasharray:none;stroke-opacity:1"
       d="m -11.959186,28.277735 0.67493,12.565369 M 11.845061,27.156962 11.724949,31.697185 M -4.6057599,28.737907 c 0.835037,1.319971 5.36686397,1.967573 9.420003,1.588682 5.173941,-0.483663 7.9894509,-2.297457 6.6981429,-3.842987 -1.5793909,-1.890331 -8.2239019,-2.795051 -14.1500789,-2.161968 -7.034038,0.751433 -10.8036751,3.253368 -8.8166991,5.374131 2.3066031,2.461911 11.08442607,3.625605 18.8801571,2.735253 C 16.321909,31.414989 21.050108,28.220911 18.361018,25.525743 15.333783,22.491667 4.4145411,21.068229 -5.2492149,22.217205 c -3.968251,0.471807 -7.3353121,1.317589 -9.7796221,2.370087 -2.351216,1.012414 -3.84863,2.216097 -4.206036,3.462183 -0.03909,0.136282 7.962058,12.656527 7.950617,12.793629 L 16.020196,38.564109 19.16856,27.268227 m -23.7743199,1.46968 -0.100571,3.523803"
       inkscape:connector-curvature="0" /><path
       style="fill:url(#linearGradient9568);fill-opacity:1;stroke:none;stroke-width:0.37795275;stroke-miterlimit:4;stroke-dasharray:none;stroke-opacity:1"
       d="m -11.242659,40.467256 c -0.02288,-0.271589 -0.599367,-10.970538 -0.599367,-11.123638 0,-0.02885 0.09615,0.07297 0.213671,0.226266 0.312181,0.407209 0.883085,0.821093 1.6645811,1.20676 0.767338,0.37868 1.279359,0.573439 2.207318,0.839604 4.038826,1.158448 10.002761,1.481372 15.448255,0.836461 4.8450569,-0.573801 8.7754649,-1.888945 10.4869569,-3.509015 0.203087,-0.192238 0.425423,-0.430583 0.49408,-0.529655 0.06866,-0.09907 0.13229,-0.172672 0.141406,-0.163555 0.01696,0.01695 -2.525124,9.169097 -2.554603,9.197232 -0.0089,0.0085 -0.244973,-0.01079 -0.524501,-0.04295 -1.358103,-0.156253 -3.401278,-0.203253 -4.706679,-0.108269 -2.8951739,0.210661 -5.5794779,0.881939 -8.2643699,2.066716 l -0.707048,0.312003 -6.430252,0.533011 c -3.536639,0.293156 -6.5229781,0.543684 -6.6363091,0.556728 l -0.206057,0.02372 z"
       id="path9554"
       inkscape:connector-curvature="0" /><path
       style="display:inline;opacity:0.98000004;fill:url(#linearGradient9570);fill-opacity:1;stroke:url(#linearGradient9572);stroke-width:0.37795275;stroke-miterlimit:4;stroke-dasharray:none;stroke-opacity:1"
       d="m -5.4682599,32.093941 c -2.413449,-0.452094 -4.482705,-1.202627 -5.5103771,-1.998651 -0.593025,-0.459351 -0.869299,-0.88228 -0.910341,-1.393581 -0.0404,-0.503238 0.09741,-0.844833 0.525672,-1.303038 1.4785361,-1.581915 5.2444051,-2.71999 10.1351301,-3.062914 1.35520297,-0.09502 4.867008,-0.03945 6.06306,0.09595 3.17018,0.358881 5.3755789,1.027696 6.3622089,1.929422 0.418317,0.382317 0.522147,0.574302 0.522147,0.965464 0,1.270572 -2.4574629,2.418219 -6.2812499,2.933376 -1.17632,0.158478 -4.78962303,0.158469 -5.90624503,-1.6e-5 -2.00930897,-0.285186 -3.24069597,-0.681312 -3.84260497,-1.236132 -0.23477,-0.216403 -0.302423,-0.251033 -0.348413,-0.178343 -0.03139,0.04961 -0.0575,0.444352 -0.05803,0.877198 -0.0012,1.020919 -0.07239,2.495912 -0.120022,2.488371 -0.02045,-0.0032 -0.304373,-0.05594 -0.630935,-0.117109 z"
       id="path9556"
       inkscape:connector-curvature="0" /><path
       style="display:inline;opacity:0.98000004;fill:url(#linearGradient9574);fill-opacity:1;stroke:none;stroke-width:0.00668132;stroke-miterlimit:4;stroke-dasharray:none;stroke-opacity:1"
       d="m -13.029065,32.349277 c -1.483714,-0.842309 -3.158659,-1.948652 -4.552,-3.006706 -1.415852,-1.075149 -1.546796,-1.186156 -1.546796,-1.31129 0,-0.471687 1.006923,-1.601383 1.995859,-2.239211 2.793175,-1.801496 7.3228201,-3.039886 13.3837141,-3.659062 2.205551,-0.225317 8.480752,-0.226633 10.663561,-0.0022 4.2168549,0.433501 7.3673309,1.171069 9.5331759,2.231842 1.809088,0.886042 2.746273,1.960712 2.564596,2.940818 -0.220405,1.189035 -1.530368,2.298209 -3.82293,3.236958 -0.924261,0.378462 -2.973768,1.022019 -3.25478,1.022019 -0.103508,0 -0.120428,-0.3877 -0.103417,-2.369851 l 0.02034,-2.369851 -0.253487,-0.333757 c -1.502508,-1.978293 -8.7389299,-2.991812 -15.1702799,-2.124719 -3.712901,0.500584 -6.8710451,1.651823 -7.9128701,2.88448 -0.534503,0.63241 -0.587073,0.888385 -0.490365,2.387696 0.179244,2.778885 0.200501,3.340213 0.126488,3.340158 -0.04177,-3.1e-5 -0.573136,-0.282311 -1.180806,-0.627287 z"
       id="path9558"
       inkscape:connector-curvature="0" /></g></g><g
   inkscape:groupmode="layer"
   id="layer2"
   inkscape:label="Layer 2"
   style="display:inline"
   transform="translate(-0.815625,-0.8)"><path
     inkscape:connector-curvature="0"
     d="M 11.262155,15.516852 C 5.7775788,20.772271 0.82953339,31.988317 0.82953339,43.509023 v 41.277 c 0,0.764767 0.0141501,0.01762 0.12069551,-0.572653 0,0 0.3866073,-13.980186 2.9008668,-15.055938 2.2873921,-0.978685 3.8785688,1.291882 3.8785688,1.291882 C 8.2306229,33.910279 9.5158047,23.902486 11.262155,15.516852 Z"
     id="path2678-6"
     style="fill:url(#linearGradient9416);fill-opacity:1"
     sodipodi:nodetypes="csssscc" /></g><g
   inkscape:groupmode="layer"
   id="layer3"
   inkscape:label="Layer 3"
   style="display:inline"
   transform="translate(-0.815625,-0.8)"><path
     inkscape:connector-curvature="0"
     d="m 84.792625,0.8 c 0,0 -3.535923,14.458118 -37.493241,22.029023 -6.630454,1.478283 -12.952368,0.494637 -19.160236,-1.89538 -5.355491,-2.061856 -5.330752,-2.510464 -5.330752,-2.510464 -5.582958,5.086974 -10.32794,37.874973 -10.178532,67.623948 L 43.515625,86.2 c 23.582711,0.116729 42.7,-19.118 42.7,-42.7 V 2.223 c 0,-0.786 -0.655974,-1.59465772 -1.423,-1.423 z"
     id="path2678-9"
     style="fill:url(#linearGradient9408);fill-opacity:1"
     sodipodi:nodetypes="sssccssss" /></g><g
   inkscape:groupmode="layer"
   id="layer4"
   inkscape:label="Layer 4"
   style="display:inline"
   sodipodi:insensitive="true"
   transform="translate(-0.815625,-0.8)"><g
     transform="matrix(-0.05995782,0.02569796,0.02569796,0.05995782,105.67794,-36.452838)"
     style="fill:url(#linearGradient5526);fill-opacity:1;stroke:none"
     id="layer101"><path
       inkscape:connector-curvature="0"
       d="m 1684,674 c 3,6 15,44 28,84 18,60 26,72 44,72 28,0 74,37 74,59 0,27 -36,68 -65,75 l -26,7 30,38 c 58,73 31,138 -53,129 l -44,-5 5,32 c 11,69 -35,96 -108,64 -41,-19 -43,-19 -106,1 -252,78 -503,-104 -503,-363 0,-40 4,-86 9,-104 l 9,-31 c 159.5301,-297.59119 509.0056,-333.0305 706,-58 z m -247,485 c 52,-21 94,-27 124,-19 27,8 29,7 29,-19 0,-41 41,-75 80,-68 35,7 37,1 10,-33 -27,-34 -25,-77 3,-102 l 23,-20 -28,-28 c -15,-16 -28,-38 -28,-49 0,-35 -36,-118 -69,-160 -20,-26 -57,-52 -99,-73 -58,-29 -76,-33 -143,-32 -93,1 -167,32 -224,96 -59,64 -79,120 -79,213 0,131 53,218 166,275 51,25 73,30 134,30 40,0 85,-5 101,-11 z"
       id="path4506"
       style="fill:url(#linearGradient5535);fill-opacity:1"
       sodipodi:nodetypes="ccssccccccccscccccscscccscsccscsc" /><path
       inkscape:connector-curvature="0"
       d="m 1233.761,1120.2695 c -45,-22 -116,-98 -112,-121.99998 6,-28 42,-22 63,11.99998 11,17 32,40 47,51 32,24 115,34 157,19 23,-8 32,-7 42,4 38,45 -116,73 -197,36 z"
       id="path4512"
       style="fill:url(#linearGradient5537);fill-opacity:1" /><path
       inkscape:connector-curvature="0"
       d="m 1541.4339,1057.8221 c 0,-24 28,-62.00003 46,-62.00003 23,0 28,28.00003 10,55.00003 -19,29 -56,34 -56,7 z"
       id="path4514"
       style="fill:url(#linearGradient5539);fill-opacity:1" /><path
       inkscape:connector-curvature="0"
       d="m 1073.1186,837.19319 c -22,-22 6,-112 51,-164 57,-67 140,-98 216,-80 42,9 61,29 45,45 -5,5 -39,8 -74,7 -106,-6 -167,40 -190,143 -11,47 -30,66 -48,49 z"
       id="path4516"
       style="fill:url(#linearGradient5541);fill-opacity:1" /><path
       inkscape:connector-curvature="0"
       d="m 1592.822,873.61186 c -2,-7 -12,-35 -21,-63 -25,-70 -25,-90 -2,-90 45,0 86,154 43,163 -9,2 -19,-2 -20,-10 z"
       id="path4518"
       style="fill:url(#linearGradient5543);fill-opacity:1" /></g></g><g
   inkscape:groupmode="layer"
   id="layer5"
   inkscape:label="Layer 5"
   style="display:inline"
   transform="translate(-0.815625,-0.8)"><g
     style="display:inline;stroke:none"
     id="g4602"
     transform="matrix(0.18833143,0,0,0.18833143,26.564794,38.905856)"><path
       id="path3940"
       d="m 83.578797,104.47073 c -3.8876,0 -3.227,-1.4679 -4.5678,-5.1695 L 67.578797,61.67663 155.57879,9.4707298"
       style="fill:#155b79;fill-opacity:1;stroke:none"
       inkscape:connector-curvature="0" /><path
       id="path3942"
       d="m 83.578797,104.47073 c 3,0 4.3255,-1.372 6,-3 l 16.000003,-15.558 -19.958003,-12.035"
       style="fill:#186788;fill-opacity:1;stroke:none"
       inkscape:connector-curvature="0" /><path
       id="path3944"
       d="m 85.618797,73.88073 48.360003,35.729 c 5.51849,3.0449 9.50139,1.4684 10.87599,-5.1235 l 19.685,-92.763 c 2.0154,-8.0802002 -3.0801,-11.74500021 -8.3594,-9.3482002 L 40.590397,46.94603 c -7.8901,3.1647 -7.8441,7.5666 -1.4382,9.528 l 29.663,9.2583 68.672993,-43.325 c 3.2419,-1.9659 6.2173,-0.90899 3.7752,1.2584"
       style="fill:url(#linearGradient9392);fill-opacity:1;stroke:none"
       inkscape:connector-curvature="0" /></g></g>
</svg>