<?xml version="1.0" encoding="utf-8"?>
<!-- Generator: Adobe Illustrator 21.0.0, SVG Export Plug-In . SVG Version: 6.00 Build 0)  -->
<svg version="1.0" id="Depecher" xmlns="http://www.w3.org/2000/svg" xmlns:xlink="http://www.w3.org/1999/xlink" x="0px" y="0px"
	 viewBox="0 0 86 86" style="enable-background:new 0 0 86 86;" xml:space="preserve">
<style type="text/css">
	.st0{fill:url(#icon-shape_1_);}
	.st1{fill:#C6C4B5;}
	.st2{fill:#D8D5BF;}
	.st3{fill:#E8E6CD;}
	.st4{fill:#D68595;}
</style>
<linearGradient id="icon-shape_1_" gradientUnits="userSpaceOnUse" x1="85.3683" y1="1.6272" x2="0.2095" y2="84.7852">
	<stop  offset="9.900990e-03" style="stop-color:#38AAC8"/>
	<stop  offset="0.1557" style="stop-color:#38A4CE"/>
	<stop  offset="0.4604" style="stop-color:#399AD6"/>
	<stop  offset="0.9989" style="stop-color:#008AB8"/>
</linearGradient>
<path id="icon-shape" class="st0" d="M0.5,84.1V43c0-23.5,19-42.5,42.5-42.5h41.1c0.8,0,1.4,0.6,1.4,1.4V43
	c0,23.5-19,42.5-42.5,42.5H1.9C1.1,85.5,0.5,84.9,0.5,84.1z"/>
<g id="lettre_1_">
	<path id="lettre-body" class="st1" d="M74.9,20v31.4c0,3.4-1.1,6.6-3,9.2c-2.8,4-7.5,6.5-12.8,6.5H11V37.5c0-4.1,1.3-7.8,3.5-10.9
		c3.4-4.7,8.9-7.7,15.1-7.7h44.2c0.4,0,0.7,0.2,0.9,0.4C74.8,19.5,74.9,19.8,74.9,20z"/>
	<path class="st2" d="M72,60.5c-2.8,4-7.5,6.5-12.8,6.5H23.1c-0.2,0-0.4,0.1-0.5,0.2L12.9,75C12.2,75.6,11,75,11,74v-6.9l4.8-10.6
		c10.6-23.4,43.8-23.4,54.3,0L72,60.5z"/>
	<path id="lettre-upperflap" class="st3" d="M74.7,19.4l-4.6,10.1c-10.6,23.4-43.8,23.4-54.3,0l-1.3-2.8c3.4-4.7,8.9-7.7,15.1-7.7
		h44.2C74.2,18.9,74.5,19.1,74.7,19.4z"/>
</g>
<g id="stamp">
	<g id="circle-outer">
		<g>
			<path class="st3" d="M55.7,52.8c-0.2,0.3,0,0.6,0.1,0.8c0.4,0.4,0.6,1,0.6,1.6c0,1.4-1.1,2.5-2.5,2.5c-0.6,0-1.2-0.2-1.6-0.6
				c-0.2-0.1-0.5-0.4-0.8-0.2c-0.2,0.1-0.4,0.6-0.4,0.8c0,0.9-0.8,1.7-1.7,1.7c-0.6,0-1.2-0.4-1.5-0.9c-0.1-0.1-0.3-0.5-0.9-0.4
				c-1.2,0.3-2.4,0.5-3.7,0.5C35.4,58.4,29,52,29,44.1s6.4-14.3,14.3-14.3s14.3,6.4,14.3,14.3c0,1.6-0.3,3.1-0.7,4.5l0,0
				c-0.2,0.6,0.2,0.8,0.3,0.8c0.5,0.3,0.9,0.8,0.9,1.5c0,0.9-0.8,1.7-1.7,1.7c-0.2,0-0.5-0.2-0.8,0.2L55.7,52.8z"/>
			<path class="st4" d="M49.4,60.3c-1,0-1.8-0.5-2.3-1.3c-1.2,0.3-2.5,0.5-3.8,0.5c-8.4,0-15.3-6.9-15.3-15.3s6.9-15.3,15.3-15.3
				c8.4,0,15.3,6.9,15.3,15.3c0,1.6-0.2,3.1-0.7,4.6c0.7,0.5,1.2,1.3,1.2,2.2c0,1.3-0.9,2.3-2.1,2.6c0.2,0.5,0.4,1,0.4,1.5
				c0,1.9-1.6,3.5-3.5,3.5c-0.6,0-1.2-0.2-1.8-0.5C51.9,59.3,50.7,60.3,49.4,60.3z M47.1,56.9c0.5,0,1.2,0.2,1.7,1
				c0.1,0.2,0.4,0.4,0.6,0.4c0.4,0,0.7-0.3,0.7-0.7c0-0.4,0.2-1.2,0.8-1.6c0.6-0.4,1.3-0.3,1.9,0.2c0.3,0.2,0.6,0.3,1,0.3
				c0.8,0,1.5-0.7,1.5-1.5c0-0.3-0.1-0.7-0.3-0.9c-0.3-0.4-0.4-0.8-0.4-1.1c0-0.2,0-0.4,0.1-0.6c0-0.1,0.1-0.2,0.2-0.3
				c0,0,0.1-0.1,0.1-0.1c0.3-0.3,0.7-0.5,1.5-0.4c0.4,0,0.6-0.3,0.6-0.7c0-0.3-0.1-0.5-0.4-0.6c-0.7-0.4-1-1.1-0.8-2l0.3-1l0,0
				c0.3-1.1,0.4-2.2,0.4-3.3c0-7.3-6-13.3-13.3-13.3S30,36.8,30,44.1s6,13.3,13.3,13.3c1.2,0,2.3-0.1,3.4-0.4l0.1,0
				C47,57,47,56.9,47.1,56.9z M52.2,57.6L52.2,57.6L52.2,57.6z"/>
		</g>
	</g>
	<g id="circle-inner">
		<path class="st4" d="M43.3,55.7c-3.5,0-6.8-1.6-9-4.3c-0.3-0.4-0.2-0.9,0.1-1.2c0.4-0.3,0.9-0.2,1.2,0.1c1.9,2.3,4.6,3.6,7.6,3.6
			c0.3,0,0.7,0,1,0c0.5-0.1,0.9,0.3,1,0.8c0,0.5-0.3,0.9-0.8,1C44.1,55.7,43.7,55.7,43.3,55.7z"/>
		<path class="st4" d="M50.6,52.8c-0.2,0-0.5-0.1-0.6-0.3c-0.3-0.4-0.3-0.9,0-1.2c0.7-0.7,1.3-1.4,1.8-2.2c0.2-0.4,0.8-0.6,1.2-0.3
			c0.4,0.2,0.6,0.8,0.3,1.2c-0.6,1-1.3,1.8-2.1,2.6C51.1,52.7,50.8,52.8,50.6,52.8z"/>
		<path class="st4" d="M54,45c-0.5,0-0.9-0.4-0.9-0.9c0-2.1-0.6-4-1.8-5.7c-0.3-0.4-0.2-0.9,0.2-1.2c0.4-0.3,0.9-0.2,1.2,0.2
			c1.4,2,2.1,4.3,2.1,6.7C54.9,44.6,54.5,45,54,45z"/>
		<path class="st4" d="M32.6,45c-0.5,0-0.9-0.4-0.9-0.9c0-1.2,0.2-2.4,0.6-3.6c1.6-4.8,6-8,11-8c0.2,0,0.5,0,0.7,0
			c0.5,0,0.8,0.4,0.8,0.9s-0.4,0.8-0.9,0.8c-0.2,0-0.4,0-0.6,0c-4.3,0-8,2.7-9.3,6.8c-0.3,1-0.5,2-0.5,3.1
			C33.5,44.6,33.1,45,32.6,45z"/>
	</g>
	<g id="telegram-icon">
		<path class="st4" d="M48.6,38.2c0.6,0,0.9,0.2,0.8,0.8c0,0.5-0.1,0.9-0.3,1.4c-0.8,2.5-1.7,5-2.6,7.5c-0.4,1-0.7,2.1-1.1,3.1
			c-0.1,0.2-0.2,0.5-0.4,0.7c-0.4,0.6-0.9,0.6-1.4,0.1c-0.4-0.4-0.6-0.9-0.9-1.4c-0.4-0.9-0.9-1.8-1.3-2.8c-0.3-0.7-0.8-1.1-1.4-1.4
			c-1-0.5-2-1-3.1-1.4c-0.4-0.2-0.7-0.4-1-0.7c-0.5-0.5-0.5-1.1,0.1-1.6c0.3-0.2,0.8-0.4,1.1-0.5c3.3-1.2,6.7-2.4,10-3.6
			C47.8,38.3,48.2,38.2,48.6,38.2z"/>
	</g>
</g>
</svg>
