<?xml version="1.0" encoding="UTF-8" standalone="no"?>
<!-- Generator: Adobe Illustrator 21.0.0, SVG Export Plug-In . SVG Version: 6.00 Build 0)  -->

<svg
   xmlns:dc="http://purl.org/dc/elements/1.1/"
   xmlns:cc="http://creativecommons.org/ns#"
   xmlns:rdf="http://www.w3.org/1999/02/22-rdf-syntax-ns#"
   xmlns:svg="http://www.w3.org/2000/svg"
   xmlns="http://www.w3.org/2000/svg"
   xmlns:sodipodi="http://sodipodi.sourceforge.net/DTD/sodipodi-0.dtd"
   xmlns:inkscape="http://www.inkscape.org/namespaces/inkscape"
   version="1.0"
   id="Depecher"
   x="0px"
   y="0px"
   viewBox="0 0 64 64"
   xml:space="preserve"
   sodipodi:docname="icon-m-depecher.svg"
   width="64"
   height="64"
   inkscape:version="0.92.1 r15371"><metadata
     id="metadata44"><rdf:RDF><cc:Work
         rdf:about=""><dc:format>image/svg+xml</dc:format><dc:type
           rdf:resource="http://purl.org/dc/dcmitype/StillImage" /><dc:title></dc:title></cc:Work></rdf:RDF></metadata><defs
     id="defs42" /><sodipodi:namedview
     pagecolor="#ffffff"
     bordercolor="#666666"
     borderopacity="1"
     objecttolerance="10"
     gridtolerance="10"
     guidetolerance="10"
     inkscape:pageopacity="0"
     inkscape:pageshadow="2"
     inkscape:window-width="2560"
     inkscape:window-height="1017"
     id="namedview40"
     showgrid="false"
     inkscape:zoom="2.744186"
     inkscape:cx="34.186441"
     inkscape:cy="29.084746"
     inkscape:window-x="-8"
     inkscape:window-y="-8"
     inkscape:window-maximized="1"
     inkscape:current-layer="Depecher" /><style
     type="text/css"
     id="style2">
	.st0{fill:url(#icon-shape_1_);}
	.st1{fill:#C6C4B5;}
	.st2{fill:#D8D5BF;}
	.st3{fill:#E8E6CD;}
	.st4{fill:#D68595;}
</style><linearGradient
     id="icon-shape_1_"
     gradientUnits="userSpaceOnUse"
     x1="85.368301"
     y1="1.6272"
     x2="0.2095"
     y2="84.785202"
     gradientTransform="matrix(0.75294118,0,0,0.75294118,-0.376471,-0.376471)"><stop
       offset="9.900990e-03"
       style="stop-color:#38AAC8"
       id="stop4" /><stop
       offset="0.1557"
       style="stop-color:#38A4CE"
       id="stop6" /><stop
       offset="0.4604"
       style="stop-color:#399AD6"
       id="stop8" /><stop
       offset="0.9989"
       style="stop-color:#008AB8"
       id="stop10" /></linearGradient><path
     id="icon-shape"
     class="st0"
     d="M 0,62.945882 0,32 C 0,14.305882 14.305882,0 32,0 H 62.945882 C 63.548235,0 64,0.451765 64,1.054118 V 32 C 64,49.694118 49.694118,64 32,64 H 1.054118 C 0.451765,64 0,63.548235 0,62.945882 Z"
     style="fill:url(#icon-shape_1_);stroke-width:0.75294119"
     inkscape:connector-curvature="0" /><g
     id="lettre_1_"
     transform="matrix(0.75294118,0,0,0.75294118,-0.376471,-0.376471)"><path
       id="lettre-body"
       class="st1"
       d="m 74.9,20 v 31.4 c 0,3.4 -1.1,6.6 -3,9.2 -2.8,4 -7.5,6.5 -12.8,6.5 H 11 V 37.5 c 0,-4.1 1.3,-7.8 3.5,-10.9 3.4,-4.7 8.9,-7.7 15.1,-7.7 h 44.2 c 0.4,0 0.7,0.2 0.9,0.4 0.1,0.2 0.2,0.5 0.2,0.7 z"
       inkscape:connector-curvature="0"
       style="fill:#c6c4b5" /><path
       class="st2"
       d="M 72,60.5 C 69.2,64.5 64.5,67 59.2,67 H 23.1 c -0.2,0 -0.4,0.1 -0.5,0.2 L 12.9,75 C 12.2,75.6 11,75 11,74 v -6.9 l 4.8,-10.6 c 10.6,-23.4 43.8,-23.4 54.3,0 z"
       id="path15"
       inkscape:connector-curvature="0"
       style="fill:#d8d5bf" /><path
       id="lettre-upperflap"
       class="st3"
       d="M 74.7,19.4 70.1,29.5 C 59.5,52.9 26.3,52.9 15.8,29.5 L 14.5,26.7 C 17.9,22 23.4,19 29.6,19 h 44.2 c 0.4,-0.1 0.7,0.1 0.9,0.4 z"
       inkscape:connector-curvature="0"
       style="fill:#e8e6cd" /></g><g
     id="stamp"
     transform="matrix(0.75294118,0,0,0.75294118,-0.376471,-0.376471)"><g
       id="circle-outer"><g
         id="g23"><path
           class="st3"
           d="m 55.7,52.8 c -0.2,0.3 0,0.6 0.1,0.8 0.4,0.4 0.6,1 0.6,1.6 0,1.4 -1.1,2.5 -2.5,2.5 -0.6,0 -1.2,-0.2 -1.6,-0.6 -0.2,-0.1 -0.5,-0.4 -0.8,-0.2 -0.2,0.1 -0.4,0.6 -0.4,0.8 0,0.9 -0.8,1.7 -1.7,1.7 -0.6,0 -1.2,-0.4 -1.5,-0.9 C 47.8,58.4 47.6,58 47,58.1 45.8,58.4 44.6,58.6 43.3,58.6 35.4,58.4 29,52 29,44.1 c 0,-7.9 6.4,-14.3 14.3,-14.3 7.9,0 14.3,6.4 14.3,14.3 0,1.6 -0.3,3.1 -0.7,4.5 v 0 c -0.2,0.6 0.2,0.8 0.3,0.8 0.5,0.3 0.9,0.8 0.9,1.5 0,0.9 -0.8,1.7 -1.7,1.7 -0.2,0 -0.5,-0.2 -0.8,0.2 z"
           id="path19"
           inkscape:connector-curvature="0"
           style="fill:#e8e6cd" /><path
           class="st4"
           d="m 49.4,60.3 c -1,0 -1.8,-0.5 -2.3,-1.3 -1.2,0.3 -2.5,0.5 -3.8,0.5 -8.4,0 -15.3,-6.9 -15.3,-15.3 0,-8.4 6.9,-15.3 15.3,-15.3 8.4,0 15.3,6.9 15.3,15.3 0,1.6 -0.2,3.1 -0.7,4.6 0.7,0.5 1.2,1.3 1.2,2.2 0,1.3 -0.9,2.3 -2.1,2.6 0.2,0.5 0.4,1 0.4,1.5 0,1.9 -1.6,3.5 -3.5,3.5 -0.6,0 -1.2,-0.2 -1.8,-0.5 -0.2,1.2 -1.4,2.2 -2.7,2.2 z m -2.3,-3.4 c 0.5,0 1.2,0.2 1.7,1 0.1,0.2 0.4,0.4 0.6,0.4 0.4,0 0.7,-0.3 0.7,-0.7 0,-0.4 0.2,-1.2 0.8,-1.6 0.6,-0.4 1.3,-0.3 1.9,0.2 0.3,0.2 0.6,0.3 1,0.3 0.8,0 1.5,-0.7 1.5,-1.5 0,-0.3 -0.1,-0.7 -0.3,-0.9 -0.3,-0.4 -0.4,-0.8 -0.4,-1.1 0,-0.2 0,-0.4 0.1,-0.6 0,-0.1 0.1,-0.2 0.2,-0.3 0,0 0.1,-0.1 0.1,-0.1 0.3,-0.3 0.7,-0.5 1.5,-0.4 0.4,0 0.6,-0.3 0.6,-0.7 0,-0.3 -0.1,-0.5 -0.4,-0.6 -0.7,-0.4 -1,-1.1 -0.8,-2 l 0.3,-1 v 0 c 0.3,-1.1 0.4,-2.2 0.4,-3.3 0,-7.3 -6,-13.3 -13.3,-13.3 -7.3,0 -13.3,6.1 -13.3,13.4 0,7.3 6,13.3 13.3,13.3 1.2,0 2.3,-0.1 3.4,-0.4 h 0.1 c 0.2,0 0.2,-0.1 0.3,-0.1 z m 5.1,0.7 z"
           id="path21"
           inkscape:connector-curvature="0"
           style="fill:#d68595" /></g></g><g
       id="circle-inner"><path
         class="st4"
         d="m 43.3,55.7 c -3.5,0 -6.8,-1.6 -9,-4.3 -0.3,-0.4 -0.2,-0.9 0.1,-1.2 0.4,-0.3 0.9,-0.2 1.2,0.1 1.9,2.3 4.6,3.6 7.6,3.6 0.3,0 0.7,0 1,0 0.5,-0.1 0.9,0.3 1,0.8 0,0.5 -0.3,0.9 -0.8,1 -0.3,0 -0.7,0 -1.1,0 z"
         id="path26"
         inkscape:connector-curvature="0"
         style="fill:#d68595" /><path
         class="st4"
         d="m 50.6,52.8 c -0.2,0 -0.5,-0.1 -0.6,-0.3 -0.3,-0.4 -0.3,-0.9 0,-1.2 0.7,-0.7 1.3,-1.4 1.8,-2.2 0.2,-0.4 0.8,-0.6 1.2,-0.3 0.4,0.2 0.6,0.8 0.3,1.2 -0.6,1 -1.3,1.8 -2.1,2.6 -0.1,0.1 -0.4,0.2 -0.6,0.2 z"
         id="path28"
         inkscape:connector-curvature="0"
         style="fill:#d68595" /><path
         class="st4"
         d="m 54,45 c -0.5,0 -0.9,-0.4 -0.9,-0.9 0,-2.1 -0.6,-4 -1.8,-5.7 -0.3,-0.4 -0.2,-0.9 0.2,-1.2 0.4,-0.3 0.9,-0.2 1.2,0.2 1.4,2 2.1,4.3 2.1,6.7 0.1,0.5 -0.3,0.9 -0.8,0.9 z"
         id="path30"
         inkscape:connector-curvature="0"
         style="fill:#d68595" /><path
         class="st4"
         d="m 32.6,45 c -0.5,0 -0.9,-0.4 -0.9,-0.9 0,-1.2 0.2,-2.4 0.6,-3.6 1.6,-4.8 6,-8 11,-8 0.2,0 0.5,0 0.7,0 0.5,0 0.8,0.4 0.8,0.9 0,0.5 -0.4,0.8 -0.9,0.8 -0.2,0 -0.4,0 -0.6,0 -4.3,0 -8,2.7 -9.3,6.8 -0.3,1 -0.5,2 -0.5,3.1 0,0.5 -0.4,0.9 -0.9,0.9 z"
         id="path32"
         inkscape:connector-curvature="0"
         style="fill:#d68595" /></g><g
       id="telegram-icon"><path
         class="st4"
         d="m 48.6,38.2 c 0.6,0 0.9,0.2 0.8,0.8 0,0.5 -0.1,0.9 -0.3,1.4 -0.8,2.5 -1.7,5 -2.6,7.5 -0.4,1 -0.7,2.1 -1.1,3.1 -0.1,0.2 -0.2,0.5 -0.4,0.7 -0.4,0.6 -0.9,0.6 -1.4,0.1 -0.4,-0.4 -0.6,-0.9 -0.9,-1.4 -0.4,-0.9 -0.9,-1.8 -1.3,-2.8 -0.3,-0.7 -0.8,-1.1 -1.4,-1.4 -1,-0.5 -2,-1 -3.1,-1.4 -0.4,-0.2 -0.7,-0.4 -1,-0.7 -0.5,-0.5 -0.5,-1.1 0.1,-1.6 0.3,-0.2 0.8,-0.4 1.1,-0.5 3.3,-1.2 6.7,-2.4 10,-3.6 0.7,-0.1 1.1,-0.2 1.5,-0.2 z"
         id="path35"
         inkscape:connector-curvature="0"
         style="fill:#d68595" /></g></g></svg>